<svg id="SvgjsSvg1011" width="288" height="288" xmlns="http://www.w3.org/2000/svg" version="1.1" xmlns:xlink="http://www.w3.org/1999/xlink" xmlns:svgjs="http://svgjs.com/svgjs"><defs id="SvgjsDefs1012"></defs><g id="SvgjsG1013"><svg xmlns="http://www.w3.org/2000/svg" fill="currentColor" class="bi bi-file-earmark-person" viewBox="0 0 16 16" width="288" height="288"><path d="M11 8a3 3 0 1 1-6 0 3 3 0 0 1 6 0z" fill="#587850" class="color000 svgShape"></path><path d="M14 14V4.5L9.5 0H4a2 2 0 0 0-2 2v12a2 2 0 0 0 2 2h8a2 2 0 0 0 2-2zM9.5 3A1.5 1.5 0 0 0 11 4.5h2v9.255S12 12 8 12s-5 1.755-5 1.755V2a1 1 0 0 1 1-1h5.5v2z" fill="#587850" class="color000 svgShape"></path></svg></g></svg>